<svg width="154px" height="154px" viewBox="0 0 154 154" version="1.1" xmlns="http://www.w3.org/2000/svg" xmlns:xlink="http://www.w3.org/1999/xlink"><title>Page 1</title><desc>Created with Sketch.</desc><defs><circle id="path-1" cx="77" cy="77" r="77"/><polygon id="path-3" points="11.369 0.48 0.519 0.48 0.519 20.755 11.369 50.648 22.498 20.755 22.498 0.48"/><path d="M7.086 12.977v9.638a4.235 4.235 0 0 0-1.837-.177c-2.665.361-4.588 3.445-4.237 6.892.35 3.443 2.867 5.944 5.532 5.586.175-.061.358-.093.542-.096v.131a.385.385 0 0 0-.076.07c.189 11.756 9.77 21.19 21.527 21.195 11.84 0 22.052-9.533 22.191-21.341.101.019.187.042.291.053 2.654.293 5.16-2.271 5.606-5.725.448-3.455-1.349-6.493-4.002-6.788a3.776 3.776 0 0 0-1.981.307v-9.095C50.642 1.94 28.902.341 28.902.341S7.086 1.29 7.086 12.977z" id="path-5"/><path d="M7.086 12.978v9.637a4.234 4.234 0 0 0-1.837-.176c-2.666.36-4.588 3.444-4.237 6.891.35 3.443 2.867 5.945 5.532 5.586.174-.061.357-.093.542-.096v.131a.39.39 0 0 0-.076.07c.188 11.757 9.769 21.19 21.527 21.196 11.839 0 22.052-9.534 22.191-21.342.101.02.187.042.291.053 2.654.293 5.16-2.27 5.606-5.724.448-3.455-1.348-6.493-4.002-6.788a3.776 3.776 0 0 0-1.981.306v-9.094C50.642 1.94 28.903.341 28.903.341s-21.817.95-21.817 12.637z" id="path-7"/></defs><g id="Page-1" stroke="none" stroke-width="1" fill="none" fill-rule="evenodd"><g id="Landing-2-Copy" transform="translate(-323.000000, -1609.000000)"><g id="Page-1" transform="translate(323.000000, 1609.000000)"><mask id="mask-2" fill="#fff"><use xlink:href="#path-1"/></mask><use id="Mask" fill="#F8F9FA" xlink:href="#path-1"/><g mask="url(#mask-2)"><g transform="translate(26.000000, 25.000000)"><g id="Group-9" stroke-width="1" fill="none" transform="translate(6.000000, 0.340000)"><path d="M65.267 8.315s-2.436-7.296 9.716-8.08C87.18-.552 94.624 15.059 89.07 24.977 83.516 34.895 72.408 40.266 74.392 47.3c1.983 7.034 6.744 11.315 6.744 11.315s-8.355 2.04-12.695 0c-6.796-3.195-9.522-9.471-9.125-15.802.397-6.331 1.587-22.2 1.587-22.2l4.364-12.298z" id="Fill-1" fill="#77492A"/><path d="M60.21 8.173s4.425-2.947 7.746 0c3.32 2.948 3.34 5.958 1.752 8.067-1.752 2.326-6.413 3.458-6.413 3.458L60.21 8.173z" id="Fill-3" fill="#F15A24"/><path d="M26.01 8.315s2.436-7.296-9.716-8.08C4.098-.552-3.347 15.059 2.207 24.977 7.761 34.895 18.869 40.266 16.885 47.3c-1.983 7.034-6.744 11.315-6.744 11.315s8.355 2.04 12.695 0c6.796-3.195 9.521-9.471 9.125-15.802-.397-6.331-1.587-22.2-1.587-22.2L26.01 8.315z" id="Fill-5" fill="#77492A"/><path d="M31.067 8.173s-4.425-2.947-7.745 0c-3.32 2.948-3.342 5.958-1.753 8.067 1.753 2.326 6.414 3.458 6.414 3.458l3.084-11.525z" id="Fill-7" fill="#F15A24"/></g><g id="Group-12" stroke-width="1" fill="none" transform="translate(40.000000, 58.340000)"><mask id="mask-4" fill="#fff"><use xlink:href="#path-3"/></mask><polygon id="Fill-10" fill="#F99A1C" mask="url(#mask-4)" points="-4.807 55.649 27.825 55.649 27.825 -4.52 -4.807 -4.52"/></g><path d="M75.622 34.755a3.758 3.758 0 0 0-1.979.306v-9.094c0-11.687-21.742-13.286-21.742-13.286s-21.815.949-21.815 12.636v9.638a4.206 4.206 0 0 0-1.837-.176c-2.665.36-4.589 3.445-4.238 6.89.351 3.443 2.868 5.945 5.533 5.586.175-.06.357-.092.542-.095v.13a.421.421 0 0 0-.076.07c.188 11.757 9.77 21.191 21.527 21.196 11.84 0 22.051-9.533 22.191-21.342.101.02.187.042.291.054 2.653.292 5.16-2.271 5.606-5.725.448-3.455-1.349-6.494-4.003-6.788" id="Fill-13" fill="#FBB03B"/><g id="Group-17" stroke-width="1" fill="none" transform="translate(23.000000, 12.340000)"><mask id="mask-6" fill="#fff"><use xlink:href="#path-5"/></mask><polygon id="Fill-15" fill="#FBB03B" mask="url(#mask-6)" points="-153.45 4120 1286.55 4120 1286.55 -1484 -153.45 -1484"/></g><g id="Group-20" stroke-width="1" fill="none" transform="translate(23.000000, 12.340000)"><mask id="mask-8" fill="#fff"><use xlink:href="#path-7"/></mask><polygon id="Fill-18" fill="#FBB03B" mask="url(#mask-8)" points="-4.03 61.216 61.694 61.216 61.694 -4.659 -4.03 -4.659"/></g><g id="Group-37" stroke-width="1" fill="none" transform="translate(0.000000, 3.340000)"><path d="M64.476 14.248s-1.977 7.463-8.015 10.606c-4.607 2.398-11.235 3.19-11.235 3.19l.336-8.759s-3.206 5.25-7.694 8.154c-4.488 2.904-8.015 4.186-8.015 4.186S23.832.209 52.329.849c28.497.641 21.765 30.776 21.765 30.776s-5.772-1.332-8.977-6.771c-3.204-5.44-.641-10.605-.641-10.605" id="Fill-21" fill="#875431"/><path d="M40.404 72.873s-14.015 3.883-22.542 6.99C9.337 82.97 7.485 89.572 6.275 95.397c-1.21 5.826-5.856 30.784-5.856 30.784h51.636l-11.65-53.308z" id="Fill-23" fill="#22B573"/><path d="M62.567 72.873s14.014 3.883 22.542 6.99c8.526 3.107 10.378 9.709 11.588 15.534 1.21 5.826 5.855 30.784 5.855 30.784H50.917l11.65-53.308z" id="Fill-25" fill="#22B573"/><polygon id="Fill-27" fill="#22B573" points="42.1199 77.7876 51.3039 79.6296 65.2789 78.7086 53.6999 124.0356 48.6039 124.0356 40.5179 94.7936"/><path d="M51.508 79.63c-8.67-.811-10.913-6.757-10.913-6.757l-4.642 1.273s-3.123 9.815 4.762 12.933c7.884 3.118 10.793-7.45 10.793-7.45" id="Fill-29" fill="#FFF"/><path d="M51.304 79.63c8.77-.811 11.038-6.757 11.038-6.757l4.695 1.273s3.159 9.815-4.816 12.933c-7.974 3.118-10.917-7.45-10.917-7.45" id="Fill-31" fill="#FFF"/><path d="M53.048 90.022a1.744 1.744 0 1 1-3.489 0 1.744 1.744 0 0 1 3.489 0" id="Fill-33" fill="#FFF"/><path d="M53.048 98.51a1.744 1.744 0 1 1-3.489-.001 1.744 1.744 0 0 1 3.489 0" id="Fill-35" fill="#FFF"/></g></g></g></g></g></g></svg>