<svg width="154px" height="154px" viewBox="0 0 154 154" version="1.1" xmlns="http://www.w3.org/2000/svg" xmlns:xlink="http://www.w3.org/1999/xlink"><title>Group 19</title><desc>Created with Sketch.</desc><defs><circle id="path-1" cx="77" cy="77" r="77"/><polygon id="path-3" points="11.49 0.48 0.639 0.48 0.639 20.755 11.49 50.649 22.62 20.755 22.62 0.48"/><path d="M6.206 12.977v9.638a4.185 4.185 0 0 0-1.836-.176C1.706 22.8-.219 25.884.132 29.33.483 32.773 3 35.275 5.665 34.915c.175-.06.356-.092.541-.095v.13a.385.385 0 0 0-.075.07c.187 11.756 9.768 21.191 21.527 21.196 11.839 0 22.051-9.534 22.19-21.342.102.02.189.042.292.055 2.654.291 5.16-2.273 5.606-5.726.448-3.455-1.35-6.494-4.003-6.787a3.746 3.746 0 0 0-1.979.305v-9.094C49.764 1.94 28.023.342 28.023.342S6.206 1.29 6.206 12.977z" id="path-5"/><path d="M6.205 12.977v9.638a4.18 4.18 0 0 0-1.835-.176c-2.664.36-4.589 3.446-4.239 6.891.352 3.443 2.869 5.946 5.534 5.584.174-.059.356-.091.54-.094v.129a.416.416 0 0 0-.074.071c.188 11.756 9.768 21.191 21.527 21.197 11.839 0 22.05-9.535 22.19-21.343.101.019.188.042.291.054 2.655.292 5.161-2.272 5.607-5.724.447-3.455-1.35-6.495-4.003-6.788a3.753 3.753 0 0 0-1.98.305v-9.093C49.763 1.94 28.022.342 28.022.342S6.205 1.291 6.205 12.977z" id="path-7"/><path d="M.489 20.342c.059.003.534.006.593.006 5.958 0 7.462-4.141 13.933.837 7.577 5.828 7.535 15.328 7.535 15.328 1.916-11.744 2.389-19.957-.893-25.545C17.12 3.241 7.23.535.489.451v19.891z" id="path-9"/><path d="M3.111 10.968C-.169 16.556.304 24.769 2.22 36.513c0 0-.042-9.5 7.535-15.328 6.471-4.978 7.974-.837 13.933-.837.059 0 .533-.003.592-.006V.451C17.539.535 7.65 3.241 3.111 10.968z" id="path-11"/></defs><g id="Page-1" stroke="none" stroke-width="1" fill="none" fill-rule="evenodd"><g id="Landing-2-Copy" transform="translate(-643.000000, -1609.000000)"><g id="Group-19" transform="translate(643.000000, 1609.000000)"><mask id="mask-2" fill="#fff"><use xlink:href="#path-1"/></mask><use id="Mask" fill="#F8F9FA" xlink:href="#path-1"/><g id="Page-1" mask="url(#mask-2)"><g transform="translate(18.000000, 25.000000)"><g id="Group-5" stroke-width="1" fill="none" transform="translate(0.000000, 75.950000)"><path d="M40.925.123S26.91 4.006 18.384 7.113c-8.527 3.107-10.38 9.709-11.59 15.534C5.585 28.473.94 53.43.94 53.43h51.635L40.925.123z" id="Fill-1" fill="#777"/><path d="M78.98.123s14.014 3.883 22.541 6.99c8.527 3.107 10.379 9.709 11.589 15.534 1.21 5.826 5.855 30.784 5.855 30.784H67.33L78.98.123z" id="Fill-3" fill="#777"/></g><g id="Group-8" stroke-width="1" fill="none" transform="translate(48.000000, 58.950000)"><mask id="mask-4" fill="#fff"><use xlink:href="#path-3"/></mask><polygon id="Fill-6" fill="#F99A1C" mask="url(#mask-4)" points="-4.687 55.649 27.945 55.649 27.945 -4.52 -4.687 -4.52"/></g><path d="M83.743 35.365a3.758 3.758 0 0 0-1.98.306v-9.094c0-11.687-21.74-13.286-21.74-13.286s-21.816.949-21.816 12.636v9.638a4.206 4.206 0 0 0-1.837-.176c-2.664.36-4.588 3.445-4.238 6.89.352 3.443 2.868 5.945 5.533 5.586.175-.06.357-.092.542-.095v.13a.421.421 0 0 0-.076.07c.188 11.757 9.769 21.19 21.528 21.196 11.839 0 22.05-9.534 22.19-21.342.1.02.188.042.29.054 2.654.292 5.162-2.271 5.607-5.725.448-3.455-1.35-6.494-4.003-6.788" id="Fill-9" fill="#FBB03B"/><g id="Group-13" stroke-width="1" fill="none" transform="translate(32.000000, 12.950000)"><mask id="mask-6" fill="#fff"><use xlink:href="#path-5"/></mask><polygon id="Fill-11" fill="#FBB03B" mask="url(#mask-6)" points="-154.33 4120 1285.67 4120 1285.67 -1484 -154.33 -1484"/></g><g id="Group-16" stroke-width="1" fill="none" transform="translate(32.000000, 12.950000)"><mask id="mask-8" fill="#fff"><use xlink:href="#path-7"/></mask><polygon id="Fill-14" fill="#FBB03B" mask="url(#mask-8)" points="-4.909 61.216 60.814 61.216 60.814 -4.659 -4.909 -4.659"/></g><g id="Group-35" stroke-width="1" fill="none" transform="translate(28.000000, 11.950000)"><polygon id="Fill-17" fill="#F1F1F1" points="12.189 64.2236 13.653 94.9656 33.344 112.8146 48.834 99.5946 51.995 64.6156 49.219 64.0396 33.344 67.6676 15.128 63.8836"/><polygon id="Fill-19" fill="#F15A24" points="34.6768 80.5645 38.7358 75.4915 31.9528 66.9955 25.0238 75.4915 29.0818 80.5645 23.5018 106.1845 31.8798 114.0475 40.2578 106.1845"/><polygon id="Fill-21" fill="#22B573" points="14.2661 87.4668 32.1681 107.7098 49.2191 87.0688 45.8201 117.6958 17.1701 117.6958"/><polygon id="Fill-23" fill="#353535" points="13.9839 63.3267 7.6649 65.7337 0.4439 83.7877 7.2139 84.9917 0.4439 91.0097 9.7719 117.6957 20.0019 117.6957"/><polygon id="Fill-25" fill="#353535" points="50.4287 63.3267 56.7477 65.7337 63.9697 83.7877 57.1997 84.9917 63.9697 91.0097 54.6417 117.6957 44.4107 117.6957"/><path d="M9.736 18.38c.993-2.617 2.47-20.852 8.507-17.76 7.144 3.658 21.634 2.67 21.634 2.67s10.972-.734 11.72 1.882c.747 2.616.559 9.794.559 9.794L50.9 10.764s-3.893 7.021-12.082 9.187c-7.514 1.987-14.452-.778-14.452-.778s10.187-.508 13.267-2.616c2.01-1.376 3.177-3.364 3.177-3.364s-11.398.935-17.565-.187c-6.166-1.12-8.034-2.989-8.034-2.989" id="Fill-27" fill="#61402F"/><path d="M31.965 55.435h-.035c-7.376 0-13.653-2.151-16.12-5.173-.035.73 6.631 9.607 14.971 9.702.431.005.813-.004 1.172-.02.358.016.741.025 1.171.02 8.541-.098 15.325-9.403 14.956-9.74-2.443 3.037-8.724 5.204-16.115 5.21" id="Fill-29" fill="#61402F"/><path d="M20.785 35.103c-5.495-.01-7.568-4.599-8.346-7.72.676-1.278 2.727-3.764 8.43-3.6 5.668.162 7.39 2.694 7.914 4.171a13.73 13.73 0 0 1-.645 2.03c-1.4 3.404-3.847 5.121-7.353 5.12m6.425-11.881c-.005-.002-.008-.002-.013-.002a20.71 20.71 0 0 0-1.73-.273C12.91 21.137 9.341 24.89 9.341 24.89l.52 1.351s.771-.47 1.28-.291c.498 3.015 2.436 10.14 9.641 10.153h.022c2.461 0 4.507-.794 6.08-2.364 1.865-1.862 2.69-4.431 3.055-6.36.307-.37.673-.655 1.074-.638.84.038 1.653 0 1.653 0v-2.46s-1.37-.345-5.457-1.058" id="Fill-31" fill="#61402F"/><path d="M35.486 29.984a13.73 13.73 0 0 1-.645-2.03c.525-1.478 2.246-4.01 7.914-4.172 5.703-.164 7.754 2.323 8.43 3.601-.778 3.121-2.851 7.71-8.346 7.72-3.506.003-5.952-1.716-7.353-5.119m-4.53-5.703v2.46s.814.037 1.654 0c.4-.018.767.268 1.074.638.365 1.928 1.19 4.497 3.056 6.36 1.572 1.57 3.618 2.364 6.079 2.364h.022c7.205-.014 9.143-7.138 9.64-10.154.51-.178 1.28.292 1.28.292l.52-1.352s-3.566-3.753-16.123-1.942c-.665.08-1.236.172-1.731.273l-.013.002c-4.087.713-5.457 1.06-5.457 1.06" id="Fill-33" fill="#61402F"/></g><g id="Group-38" stroke-width="1" fill="none" transform="translate(59.000000, 0.950000)"><mask id="mask-10" fill="#fff"><use xlink:href="#path-9"/></mask><polygon id="Fill-36" fill="#61402F" mask="url(#mask-10)" points="-4.51 41.513 29.056 41.513 29.056 -4.549 -4.51 -4.549"/></g><g id="Group-41" stroke-width="1" fill="none" transform="translate(36.000000, 0.950000)"><mask id="mask-12" fill="#fff"><use xlink:href="#path-11"/></mask><polygon id="Fill-39" fill="#61402F" mask="url(#mask-12)" points="-4.287 41.513 29.28 41.513 29.28 -4.549 -4.287 -4.549"/></g><g id="Group-46" stroke-width="1" fill="none" transform="translate(42.000000, 70.950000)"><polygon id="Fill-42" fill="#FFF" points="4.6421 0.4219 0.2441 4.9819 8.5161 22.1879 18.1751 8.2909"/><polygon id="Fill-44" fill="#FFF" points="31.7075 0.4219 36.1055 4.9819 27.8335 22.1879 18.1745 8.2909"/></g></g></g></g></g></g></svg>