<svg width="154px" height="154px" viewBox="0 0 154 154" version="1.1" xmlns="http://www.w3.org/2000/svg" xmlns:xlink="http://www.w3.org/1999/xlink"><title>Group 21</title><desc>Created with Sketch.</desc><defs><circle id="path-1" cx="77" cy="77" r="77"/><polygon id="path-3" points="11.369 0.48 0.118 0.48 0.118 20.755 11.369 50.648 22.498 20.755 22.498 0.48"/><path d="M7.049 12.977v9.638a4.235 4.235 0 0 0-1.837-.177C2.549 22.799.624 25.883.975 29.33c.352 3.443 2.868 5.944 5.534 5.586a1.71 1.71 0 0 1 .54-.096v.131a.385.385 0 0 0-.076.07c.189 11.756 9.77 21.19 21.528 21.195 11.839 0 22.051-9.533 22.19-21.341.102.019.188.042.292.053 2.653.293 5.161-2.271 5.605-5.725.448-3.455-1.348-6.493-4.002-6.788a3.767 3.767 0 0 0-1.979.307v-9.095C50.607 1.94 28.865.341 28.865.341S7.049 1.29 7.049 12.977z" id="path-5"/><path d="M7.049 12.978v9.637a4.23 4.23 0 0 0-1.836-.176c-2.665.36-4.588 3.444-4.238 6.891.352 3.443 2.868 5.945 5.534 5.586a1.71 1.71 0 0 1 .54-.096v.131a.421.421 0 0 0-.076.07c.188 11.757 9.77 21.19 21.527 21.196 11.839 0 22.052-9.534 22.192-21.342.101.02.187.042.291.053 2.653.293 5.16-2.27 5.605-5.724.449-3.455-1.348-6.493-4.001-6.788a3.767 3.767 0 0 0-1.98.306v-9.094C50.607 1.94 28.866.341 28.866.341s-21.817.95-21.817 12.637z" id="path-7"/></defs><g id="Page-1" stroke="none" stroke-width="1" fill="none" fill-rule="evenodd"><g id="Landing-2-Copy" transform="translate(-963.000000, -1609.000000)"><g id="Group-21" transform="translate(963.000000, 1609.000000)"><mask id="mask-2" fill="#fff"><use xlink:href="#path-1"/></mask><use id="Mask" fill="#F8F9FA" xlink:href="#path-1"/><g id="Page-1" mask="url(#mask-2)"><g transform="translate(31.000000, 10.000000)"><g id="Group-5" stroke-width="1" fill="none" transform="translate(15.000000, 0.340000)"><path d="M46.806 12.017c0 6.63-6.557 12.004-14.646 12.004-8.09 0-14.647-5.374-14.647-12.004S24.07.012 32.159.012c8.09 0 14.648 5.375 14.648 12.005" id="Fill-1" fill="#DDD7E0"/><path d="M63.368 39.22c0-19.392-14.442-30.548-31.86-30.548C14.094 8.672.298 19.828.298 39.22c0 19.392 14.118 35.112 31.535 35.112s31.536-15.72 31.536-35.112" id="Fill-3" fill="#ECE6ED"/></g><g id="Group-8" stroke-width="1" fill="none" transform="translate(35.000000, 75.340000)"><mask id="mask-4" fill="#fff"><use xlink:href="#path-3"/></mask><polygon id="Fill-6" fill="#F99A1C" mask="url(#mask-4)" points="-4.808 55.649 27.824 55.649 27.824 -4.52 -4.808 -4.52"/></g><path d="M70.586 51.755a3.758 3.758 0 0 0-1.98.306v-9.094c0-11.687-21.74-13.286-21.74-13.286S25.05 30.63 25.05 42.317v9.638a4.206 4.206 0 0 0-1.837-.176c-2.665.36-4.59 3.445-4.238 6.89.352 3.443 2.868 5.945 5.533 5.586.175-.06.357-.092.542-.095v.13a.421.421 0 0 0-.076.07c.188 11.757 9.769 21.191 21.527 21.196 11.84 0 22.05-9.533 22.19-21.342.102.02.188.042.292.054 2.653.292 5.16-2.271 5.606-5.725.448-3.455-1.35-6.494-4.003-6.788" id="Fill-9" fill="#FBB03B"/><g id="Group-13" stroke-width="1" fill="none" transform="translate(18.000000, 29.340000)"><mask id="mask-6" fill="#fff"><use xlink:href="#path-5"/></mask><polygon id="Fill-11" fill="#FBB03B" mask="url(#mask-6)" points="-153.487 4120 1286.513 4120 1286.513 -1484 -153.487 -1484"/></g><g id="Group-16" stroke-width="1" fill="none" transform="translate(18.000000, 29.340000)"><mask id="mask-8" fill="#fff"><use xlink:href="#path-7"/></mask><polygon id="Fill-14" fill="#FBB03B" mask="url(#mask-8)" points="-4.067 61.216 61.657 61.216 61.657 -4.659 -4.067 -4.659"/></g><g id="Group-49" stroke-width="1" fill="none" transform="translate(0.000000, 23.340000)"><path d="M91.704 89.878c-.529-6.623-4.436-16.833-12.365-21.663-7.928-4.83-21.764-4.83-21.764-4.83s-2.094 9.38-11.266 9.656c-9.172-.275-11.267-9.655-11.267-9.655s-13.836 0-21.764 4.829C5.349 73.045 1.442 83.255.913 89.878c-.528 6.623 0 31.546 0 31.546h90.791s.528-24.923 0-31.546" id="Fill-17" fill="#F15A24"/><path d="M47.16 7.526s-.36 10.556-9.204 12.84c-8.844 2.281-14.164 0-14.164 0v5.99s-4.951-6.277-2.668-11.412C23.406 9.81 53.796.11 53.796.11L47.16 7.526z" id="Fill-19" fill="#ECE6ED"/><path d="M47.16 7.526s.359 10.556 9.204 12.84c8.844 2.281 14.164 0 14.164 0v5.99s4.95-6.277 2.668-11.412C70.914 9.81 53.796.11 53.796.11L47.16 7.526z" id="Fill-21" fill="#ECE6ED"/><path d="M24.974 41.54a2.227 2.227 0 1 1-4.453 0 2.227 2.227 0 0 1 4.453 0" id="Fill-23" fill="#FFF"/><path d="M71.743 44.168a2.226 2.226 0 1 1-1.919-4.017 2.226 2.226 0 0 1 1.919 4.017" id="Fill-25" fill="#FFF"/><path d="M57.575 63.386c4.2 16.16-2.227 30.123-11.266 30.123-9.04 0-16.407-13.883-11.266-30.123" id="Stroke-27" stroke="#FFF"/><path d="M48.811 93.585a2.502 2.502 0 1 1-5.003 0 2.502 2.502 0 0 1 5.003 0" id="Fill-29" fill="#FFF"/><path d="M40.545 89.055a2.502 2.502 0 1 1-5.003 0 2.502 2.502 0 0 1 5.003 0" id="Fill-31" fill="#FFF"/><path d="M32.582 80.148a2.503 2.503 0 1 1 4.143 2.812 2.503 2.503 0 0 1-4.143-2.812" id="Fill-33" fill="#FFF"/><path d="M52.495 88.453a2.502 2.502 0 1 0 5.003 0 2.502 2.502 0 0 0-5.003 0" id="Fill-35" fill="#FFF"/><path d="M60.584 79.74a2.502 2.502 0 1 0-4.141 2.81 2.502 2.502 0 0 0 4.14-2.81" id="Fill-37" fill="#FFF"/><path d="M31.426 70.708a2.502 2.502 0 1 1 4.141 2.81 2.502 2.502 0 0 1-4.14-2.81" id="Fill-39" fill="#FFF"/><path d="M60.96 70.708a2.503 2.503 0 1 0-4.142 2.812 2.503 2.503 0 0 0 4.142-2.812" id="Fill-41" fill="#FFF"/><path d="M43.796 30.844a6.772 6.772 0 1 1-13.544 0 6.772 6.772 0 0 1 13.544 0z" id="Stroke-43" stroke="#777" stroke-width="2"/><path d="M63.339 30.844a6.772 6.772 0 1 1-13.544 0 6.772 6.772 0 0 1 13.544 0z" id="Stroke-45" stroke="#777" stroke-width="2"/><path d="M43.796 30.844s.659-2.082 3.036-2.083c2.315 0 2.963 2.083 2.963 2.083" id="Stroke-47" stroke="#777"/></g></g></g></g></g></g></svg>